<svg width="116" height="25" viewBox="0 0 116 25" fill="none" xmlns="http://www.w3.org/2000/svg">
<path d="M0 2.19298C0 1.86343 0 1.69866 0.0210745 1.56068C0.142446 0.766053 0.766053 0.142446 1.56068 0.0210745C1.69866 0 1.86343 0 2.19298 0H65.8088C70.6615 0 73.0879 0 74.5954 1.50754C76.1029 3.01508 76.1029 5.44142 76.1029 10.2941V14.7059C76.1029 19.5586 76.1029 21.9849 74.5954 23.4925C73.0879 25 70.6615 25 65.8088 25H22.807C19.3797 25 17.666 25 16.2311 24.7808C7.96695 23.5186 1.48144 17.0331 0.219175 8.7689C0 7.33395 0 5.62029 0 2.19298Z" fill="#F80638"/>
<path d="M91.2253 14.6463C91.2253 15.5874 91.0782 16.2933 90.7841 16.7639C90.49 17.2345 89.8981 17.4698 89.0084 17.4698H83.0415C82.4385 17.4698 81.9643 17.2933 81.6187 16.9404C81.2804 16.5874 81.1113 16.1058 81.1113 15.4955V2.50287L81.2657 2.34846H90.6849C90.7363 2.59846 90.7694 2.83376 90.7841 3.05434C90.7988 3.27493 90.8062 3.48081 90.8062 3.67199C90.8062 3.86317 90.7804 4.09846 90.729 4.37787C90.6849 4.64993 90.6187 4.91464 90.5304 5.17199H85.9202C85.5672 5.17199 85.0672 5.16464 84.4202 5.14993C84.4202 5.4514 84.4238 5.71978 84.4312 5.95508C84.4385 6.18302 84.4422 6.44405 84.4422 6.73817V8.48081C84.729 8.48081 85.0084 8.48081 85.2804 8.48081C85.5525 8.47346 85.7657 8.46978 85.9202 8.46978H89.3944C89.4606 8.67567 89.5084 8.91096 89.5378 9.17567C89.5746 9.43302 89.5929 9.65361 89.5929 9.83743C89.5929 10.0286 89.5746 10.2529 89.5378 10.5102C89.5084 10.7602 89.4606 10.9918 89.3944 11.2051H85.9202C85.7657 11.2051 85.5525 11.2051 85.2804 11.2051C85.0084 11.2051 84.729 11.2014 84.4422 11.194V13.1573C84.4422 13.4293 84.4385 13.6793 84.4312 13.9073C84.4238 14.1352 84.4202 14.3926 84.4202 14.6793V14.6904C84.6702 14.683 84.9238 14.6757 85.1812 14.6683C85.4459 14.6536 85.729 14.6463 86.0304 14.6463H91.2253Z" fill="white"/>
<path d="M102.404 14.569C102.404 15.6426 102.231 16.3963 101.886 16.8301C101.54 17.2566 100.952 17.4698 100.121 17.4698H95.0253C94.4297 17.4698 93.9554 17.297 93.6025 16.9514C93.2495 16.5985 93.0731 16.1132 93.0731 15.4955V2.35949L93.2275 2.20508H94.4628C95.1172 2.20508 95.6098 2.3742 95.9407 2.71243C96.279 3.05067 96.4481 3.59478 96.4481 4.34478V14.6463C97.1613 14.5948 97.8451 14.569 98.4995 14.569H102.404Z" fill="white"/>
<path d="M115.992 9.87052C115.992 10.7308 115.934 11.5617 115.816 12.3632C115.698 13.1573 115.463 13.8999 115.11 14.5911C114.764 15.2749 114.242 15.8889 113.544 16.433C113.206 16.6977 112.798 16.911 112.32 17.0727C111.849 17.2345 111.364 17.3521 110.864 17.4257C110.371 17.4992 109.923 17.536 109.518 17.536C108.577 17.536 107.673 17.5249 106.805 17.5029C105.937 17.4882 105.025 17.4698 104.07 17.4477L103.915 17.3043V2.45875L104.07 2.31537C105.018 2.27861 105.926 2.25655 106.794 2.2492C107.669 2.23449 108.577 2.22714 109.518 2.22714C109.923 2.22714 110.375 2.2639 110.875 2.33743C111.375 2.41096 111.86 2.52861 112.331 2.69037C112.809 2.85214 113.213 3.06537 113.544 3.33008C114.235 3.8742 114.753 4.49184 115.099 5.18302C115.452 5.8742 115.687 6.61684 115.805 7.41096C115.93 8.19773 115.992 9.01758 115.992 9.87052ZM112.54 9.87052C112.54 9.29699 112.503 8.71611 112.43 8.12787C112.356 7.53964 112.217 6.9992 112.011 6.50655C111.805 6.00655 111.503 5.60581 111.106 5.30434C110.709 5.00287 110.18 4.85214 109.518 4.85214C109.128 4.85214 108.757 4.85214 108.404 4.85214C108.059 4.85214 107.68 4.84478 107.268 4.83008V14.922C107.68 14.9146 108.059 14.911 108.404 14.911C108.757 14.911 109.128 14.911 109.518 14.911C110.18 14.911 110.709 14.7602 111.106 14.4588C111.503 14.1499 111.805 13.7492 112.011 13.2565C112.217 12.7565 112.356 12.2124 112.43 11.6242C112.503 11.0286 112.54 10.444 112.54 9.87052Z" fill="white"/>
<path d="M81.4812 22.2512C81.432 22.261 81.3803 22.2668 81.3263 22.2684C81.2722 22.2717 81.2237 22.2734 81.1808 22.2734C81.1379 22.2734 81.0894 22.2717 81.0354 22.2684C80.9814 22.2668 80.9305 22.261 80.8828 22.2512V19.5756L80.909 19.551H82.6614C82.6709 19.5871 82.6781 19.6274 82.6829 19.6717C82.6876 19.7161 82.69 19.7538 82.69 19.785C82.69 19.8737 82.667 19.9427 82.6209 19.992C82.5764 20.0413 82.4977 20.0659 82.3848 20.0659H81.8246C81.7626 20.0659 81.703 20.0659 81.6457 20.0659C81.5885 20.0643 81.5329 20.0634 81.4789 20.0634C81.4804 20.1176 81.4812 20.1718 81.4812 20.226C81.4812 20.2786 81.4812 20.3312 81.4812 20.3837V20.6867C81.5273 20.6851 81.5679 20.6843 81.6028 20.6843H82.4135C82.423 20.7204 82.4293 20.7615 82.4325 20.8075C82.4373 20.8518 82.4397 20.8904 82.4397 20.9233C82.4397 20.9578 82.4373 20.9988 82.4325 21.0464C82.4293 21.0941 82.423 21.1368 82.4135 21.1746H81.6028C81.5679 21.1746 81.5273 21.1737 81.4812 21.1721V22.2512Z" fill="white"/>
<path d="M83.455 21.7018C83.4327 21.7018 83.4001 21.701 83.3572 21.6993C83.3143 21.6977 83.2762 21.6969 83.2428 21.6969L83.0592 22.2537C83.0226 22.2619 82.9821 22.2676 82.9376 22.2709C82.8947 22.2758 82.8502 22.2783 82.8041 22.2783C82.7516 22.2783 82.7 22.2742 82.6491 22.266C82.5998 22.2594 82.5585 22.2487 82.5251 22.2339L82.5061 22.2019L83.4454 19.551C83.5042 19.5428 83.5654 19.537 83.629 19.5337C83.6942 19.5288 83.7522 19.5263 83.8031 19.5263C83.8507 19.5263 83.9032 19.5288 83.9604 19.5337C84.0192 19.537 84.078 19.5428 84.1368 19.551L85.0643 22.2216C85.0182 22.2446 84.9618 22.261 84.895 22.2709C84.8298 22.2824 84.7734 22.2881 84.7257 22.2881C84.651 22.2881 84.5835 22.2734 84.5231 22.2438C84.4627 22.2126 84.4142 22.1379 84.3776 22.0196L84.2727 21.6969C84.2409 21.6969 84.2044 21.6977 84.1631 21.6993C84.1217 21.701 84.0899 21.7018 84.0677 21.7018H83.455ZM83.5408 20.7976L83.4049 21.209C83.4351 21.209 83.4677 21.2082 83.5026 21.2066C83.5392 21.2049 83.5678 21.2041 83.5885 21.2041H83.9485C83.9692 21.2041 83.9946 21.2049 84.0248 21.2066C84.0566 21.2066 84.086 21.2074 84.113 21.209L83.9962 20.8567C83.9612 20.7401 83.9231 20.6063 83.8817 20.4552C83.842 20.3024 83.8062 20.1661 83.7744 20.0462H83.7506C83.7204 20.1612 83.6862 20.2893 83.6481 20.4305C83.6099 20.5718 83.5742 20.6941 83.5408 20.7976Z" fill="white"/>
<path d="M85.1818 22.0368C85.1834 21.958 85.2056 21.8726 85.2485 21.7806C85.293 21.687 85.3463 21.6197 85.4083 21.5786C85.5195 21.6443 85.6459 21.7026 85.7874 21.7535C85.9304 21.8044 86.0782 21.8299 86.2308 21.8299C86.3453 21.8283 86.443 21.8012 86.5241 21.7486C86.6051 21.6944 86.6457 21.6205 86.6457 21.5269C86.6457 21.3889 86.5439 21.2846 86.3405 21.214L85.9137 21.044C85.7262 20.9766 85.5696 20.8855 85.444 20.7705C85.3185 20.6539 85.2557 20.4995 85.2557 20.3073C85.2557 20.0725 85.3439 19.877 85.5203 19.721C85.6968 19.5649 85.9399 19.4861 86.2499 19.4845C86.4231 19.4828 86.594 19.5034 86.7625 19.5461C86.9326 19.5888 87.0764 19.638 87.194 19.6939C87.194 19.7826 87.1757 19.8704 87.1392 19.9575C87.1026 20.0429 87.0526 20.1111 86.989 20.162C86.8729 20.1078 86.7466 20.0634 86.6099 20.0289C86.4748 19.9944 86.3516 19.9772 86.2403 19.9772C86.1291 19.9788 86.0417 20.0051 85.9781 20.056C85.9161 20.107 85.8851 20.171 85.8851 20.2482C85.8851 20.3156 85.9105 20.3673 85.9614 20.4034C86.0139 20.4379 86.0854 20.4716 86.176 20.5044L86.5956 20.6695C86.799 20.7434 86.9651 20.8477 87.0939 20.9824C87.2226 21.1171 87.287 21.2838 87.287 21.4825C87.287 21.655 87.2425 21.8036 87.1535 21.9284C87.0645 22.0533 86.9413 22.1494 86.7839 22.2167C86.6266 22.284 86.4446 22.3177 86.238 22.3177C85.9995 22.3193 85.7897 22.2898 85.6085 22.229C85.4273 22.1682 85.2851 22.1042 85.1818 22.0368Z" fill="white"/>
<path d="M88.0857 20.3492C88.0857 20.2967 88.0865 20.2482 88.088 20.2039C88.0896 20.1595 88.0904 20.1094 88.0904 20.0536C88.0602 20.0536 88.0173 20.0544 87.9617 20.056C87.9061 20.0577 87.8623 20.0585 87.8306 20.0585H87.3513C87.3434 20.0125 87.3378 19.969 87.3346 19.9279C87.3315 19.8852 87.3299 19.8458 87.3299 19.8097C87.3299 19.7752 87.3315 19.7349 87.3346 19.689C87.3378 19.643 87.3434 19.597 87.3513 19.551H89.4041C89.4136 19.5871 89.4208 19.6274 89.4256 19.6717C89.4303 19.7161 89.4327 19.7538 89.4327 19.785C89.4327 19.8737 89.4097 19.9419 89.3636 19.9895C89.3191 20.0355 89.2404 20.0585 89.1275 20.0585H88.9344C88.9042 20.0585 88.8613 20.0577 88.8057 20.056C88.7516 20.0544 88.7103 20.0536 88.6817 20.0536C88.6817 20.1094 88.6825 20.1595 88.6841 20.2039C88.6857 20.2482 88.6865 20.2967 88.6865 20.3492V22.2512C88.6499 22.2594 88.6014 22.2651 88.541 22.2684C88.4822 22.2717 88.4314 22.2734 88.3885 22.2734C88.3455 22.2734 88.2947 22.2717 88.2359 22.2684C88.1786 22.2651 88.1286 22.2594 88.0857 22.2512V20.3492Z" fill="white"/>
<path d="M91.3853 21.7018C91.3631 21.7018 91.3305 21.701 91.2876 21.6993C91.2447 21.6977 91.2065 21.6969 91.1731 21.6969L90.9895 22.2537C90.953 22.2619 90.9125 22.2676 90.868 22.2709C90.825 22.2758 90.7805 22.2783 90.7344 22.2783C90.682 22.2783 90.6303 22.2742 90.5795 22.266C90.5302 22.2594 90.4889 22.2487 90.4555 22.2339L90.4364 22.2019L91.3758 19.551C91.4346 19.5428 91.4958 19.537 91.5594 19.5337C91.6245 19.5288 91.6825 19.5263 91.7334 19.5263C91.7811 19.5263 91.8335 19.5288 91.8908 19.5337C91.9496 19.537 92.0084 19.5428 92.0672 19.551L92.9946 22.2216C92.9485 22.2446 92.8921 22.261 92.8254 22.2709C92.7602 22.2824 92.7038 22.2881 92.6561 22.2881C92.5814 22.2881 92.5138 22.2734 92.4534 22.2438C92.393 22.2126 92.3446 22.1379 92.308 22.0196L92.2031 21.6969C92.1713 21.6969 92.1347 21.6977 92.0934 21.6993C92.0521 21.701 92.0203 21.7018 91.9981 21.7018H91.3853ZM91.4712 20.7976L91.3353 21.209C91.3655 21.209 91.398 21.2082 91.433 21.2066C91.4696 21.2049 91.4982 21.2041 91.5188 21.2041H91.8788C91.8995 21.2041 91.9249 21.2049 91.9551 21.2066C91.9869 21.2066 92.0163 21.2074 92.0434 21.209L91.9265 20.8567C91.8916 20.7401 91.8534 20.6063 91.8121 20.4552C91.7724 20.3024 91.7366 20.1661 91.7048 20.0462H91.681C91.6508 20.1612 91.6166 20.2893 91.5784 20.4305C91.5403 20.5718 91.5045 20.6941 91.4712 20.7976Z" fill="white"/>
<path d="M94.185 20.837C94.1612 20.7927 94.1318 20.7336 94.0968 20.6596C94.0634 20.5841 94.03 20.5094 93.9967 20.4354C93.9633 20.3599 93.9363 20.2999 93.9156 20.2556L93.8965 20.263C93.9013 20.3747 93.9061 20.4979 93.9108 20.6325C93.9172 20.7656 93.922 20.8904 93.9251 21.007C93.9283 21.122 93.9299 21.2082 93.9299 21.2657V22.2512C93.8806 22.261 93.8322 22.2668 93.7845 22.2684C93.7384 22.2717 93.6955 22.2734 93.6557 22.2734C93.6176 22.2734 93.5731 22.2717 93.5222 22.2684C93.4713 22.2668 93.4221 22.261 93.3744 22.2512V19.5633C93.4221 19.5534 93.4801 19.5452 93.5484 19.5387C93.6168 19.5321 93.6716 19.5288 93.7129 19.5288C93.7574 19.5288 93.8139 19.5305 93.8822 19.5337C93.9522 19.5354 94.011 19.5411 94.0587 19.551L94.7906 20.9676C94.8144 21.0103 94.8446 21.0719 94.8812 21.1524C94.9177 21.2312 94.9543 21.3117 94.9909 21.3938C95.0274 21.4743 95.0568 21.5375 95.0791 21.5835L95.1005 21.5786C95.0942 21.4817 95.0862 21.3684 95.0767 21.2386C95.0687 21.1072 95.0616 20.9799 95.0552 20.8567C95.0489 20.7319 95.0457 20.6317 95.0457 20.5562V19.8762C95.0457 19.7382 95.0727 19.6454 95.1268 19.5978C95.1808 19.5502 95.2666 19.5263 95.3843 19.5263H95.5869L95.6155 19.5559V22.2438C95.5662 22.2537 95.5074 22.261 95.4391 22.266C95.3707 22.2709 95.3159 22.2734 95.2746 22.2734C95.2317 22.2734 95.1736 22.2717 95.1005 22.2684C95.0274 22.2668 94.9678 22.261 94.9217 22.2512L94.185 20.837Z" fill="white"/>
<path d="M98.5881 20.906C98.5881 21.356 98.4888 21.696 98.2901 21.926C98.0914 22.1543 97.7727 22.2684 97.3341 22.2684C97.1529 22.2684 96.9899 22.2668 96.8453 22.2635C96.7007 22.2619 96.5362 22.2586 96.3518 22.2537L96.3256 22.2266V19.5756L96.3518 19.5485C96.5362 19.5436 96.7007 19.5395 96.8453 19.5362C96.9899 19.5329 97.1529 19.5313 97.3341 19.5313C97.7696 19.5313 98.0875 19.6504 98.2877 19.8885C98.488 20.125 98.5881 20.4642 98.5881 20.906ZM97.9754 20.906C97.9754 20.8042 97.9675 20.7007 97.9516 20.5956C97.9357 20.4905 97.9055 20.3944 97.861 20.3073C97.818 20.2203 97.7537 20.1505 97.6678 20.0979C97.5836 20.0437 97.4715 20.0166 97.3317 20.0166C97.2522 20.0166 97.1815 20.0158 97.1195 20.0142C97.0591 20.0125 96.9923 20.0117 96.9192 20.0117V21.7954C96.9939 21.7954 97.0615 21.7946 97.1219 21.7929C97.1823 21.7913 97.2522 21.7905 97.3317 21.7905C97.4715 21.7905 97.5836 21.7642 97.6678 21.7116C97.7537 21.6574 97.818 21.5868 97.861 21.4998C97.9055 21.4127 97.9357 21.3174 97.9516 21.214C97.9675 21.1105 97.9754 21.0078 97.9754 20.906Z" fill="white"/>
<path d="M99.9018 20.9036C99.9018 20.621 99.9487 20.3739 100.042 20.162C100.138 19.9485 100.278 19.7826 100.462 19.6643C100.646 19.5444 100.874 19.4845 101.144 19.4845C101.419 19.4845 101.649 19.5436 101.833 19.6619C102.019 19.7801 102.159 19.946 102.253 20.1595C102.346 20.3714 102.393 20.6194 102.393 20.9036C102.393 21.1696 102.345 21.4111 102.248 21.6279C102.152 21.8447 102.012 22.0048 101.826 22.1083L101.838 22.1181C101.973 22.2282 102.09 22.2939 102.188 22.3152C102.287 22.3366 102.371 22.3497 102.441 22.3547C102.435 22.5008 102.39 22.6101 102.307 22.6823C102.226 22.7562 102.132 22.7932 102.024 22.7932C101.968 22.7932 101.905 22.7825 101.835 22.7612C101.767 22.7415 101.694 22.6947 101.616 22.6207L101.254 22.3103C101.225 22.3152 101.197 22.3177 101.17 22.3177C100.751 22.3177 100.434 22.1896 100.221 21.9334C100.008 21.6771 99.9018 21.3339 99.9018 20.9036ZM100.517 20.9036C100.517 21.0087 100.525 21.1171 100.541 21.2288C100.558 21.3388 100.589 21.4415 100.634 21.5367C100.678 21.632 100.742 21.7092 100.824 21.7683C100.907 21.8258 101.014 21.8545 101.146 21.8545C101.28 21.8545 101.388 21.8258 101.471 21.7683C101.553 21.7092 101.617 21.632 101.661 21.5367C101.706 21.4415 101.736 21.3388 101.752 21.2288C101.768 21.1171 101.776 21.0087 101.776 20.9036C101.776 20.7984 101.768 20.69 101.752 20.5783C101.736 20.4667 101.706 20.3632 101.661 20.2679C101.617 20.1727 101.553 20.0963 101.471 20.0388C101.388 19.9797 101.28 19.9501 101.146 19.9501C101.014 19.9501 100.907 19.9797 100.824 20.0388C100.742 20.0963 100.678 20.1727 100.634 20.2679C100.589 20.3632 100.558 20.4667 100.541 20.5783C100.525 20.69 100.517 20.7984 100.517 20.9036Z" fill="white"/>
<path d="M105.1 21.2706C105.1 21.6041 105.002 21.8619 104.807 22.0442C104.613 22.2266 104.338 22.3177 103.982 22.3177C103.627 22.3177 103.352 22.2266 103.157 22.0442C102.961 21.8619 102.864 21.6041 102.864 21.2706V19.5559L102.892 19.5288H103.114C103.232 19.5288 103.319 19.56 103.376 19.6224C103.435 19.6832 103.464 19.7834 103.464 19.923V21.2682C103.464 21.4456 103.506 21.5835 103.588 21.6821C103.671 21.779 103.802 21.8274 103.982 21.8274C104.163 21.8274 104.294 21.779 104.375 21.6821C104.458 21.5835 104.499 21.4456 104.499 21.2682V19.551C104.547 19.5428 104.597 19.537 104.649 19.5337C104.703 19.5305 104.75 19.5288 104.79 19.5288C104.83 19.5288 104.879 19.5305 104.938 19.5337C104.998 19.537 105.052 19.5444 105.1 19.5559V21.2706Z" fill="white"/>
<path d="M106.298 21.7018C106.276 21.7018 106.243 21.701 106.201 21.6993C106.158 21.6977 106.12 21.6969 106.086 21.6969L105.903 22.2537C105.866 22.2619 105.825 22.2676 105.781 22.2709C105.738 22.2758 105.694 22.2783 105.647 22.2783C105.595 22.2783 105.543 22.2742 105.492 22.266C105.443 22.2594 105.402 22.2487 105.368 22.2339L105.349 22.2019L106.289 19.551C106.348 19.5428 106.409 19.537 106.472 19.5337C106.538 19.5288 106.596 19.5263 106.646 19.5263C106.694 19.5263 106.747 19.5288 106.804 19.5337C106.863 19.537 106.921 19.5428 106.98 19.551L107.908 22.2216C107.862 22.2446 107.805 22.261 107.738 22.2709C107.673 22.2824 107.617 22.2881 107.569 22.2881C107.494 22.2881 107.427 22.2734 107.366 22.2438C107.306 22.2126 107.258 22.1379 107.221 22.0196L107.116 21.6969C107.084 21.6969 107.048 21.6977 107.006 21.6993C106.965 21.701 106.933 21.7018 106.911 21.7018H106.298ZM106.384 20.7976L106.248 21.209C106.278 21.209 106.311 21.2082 106.346 21.2066C106.383 21.2049 106.411 21.2041 106.432 21.2041H106.792C106.813 21.2041 106.838 21.2049 106.868 21.2066C106.9 21.2066 106.929 21.2074 106.956 21.209L106.84 20.8567C106.805 20.7401 106.766 20.6063 106.725 20.4552C106.685 20.3024 106.65 20.1661 106.618 20.0462H106.594C106.564 20.1612 106.53 20.2893 106.491 20.4305C106.453 20.5718 106.418 20.6941 106.384 20.7976Z" fill="white"/>
<path d="M110.049 21.7412C110.043 21.935 110.011 22.0697 109.954 22.1452C109.897 22.2208 109.796 22.2586 109.651 22.2586H108.628C108.522 22.2586 108.437 22.2274 108.373 22.165C108.311 22.1009 108.28 22.0122 108.28 21.8989V19.5584L108.306 19.5313H108.54C108.658 19.5313 108.744 19.5617 108.798 19.6224C108.853 19.6816 108.881 19.7801 108.881 19.9181V21.7634C109.032 21.7486 109.17 21.7412 109.296 21.7412H110.049Z" fill="white"/>
<path d="M110.505 19.551C110.552 19.5428 110.604 19.537 110.663 19.5337C110.723 19.5305 110.772 19.5288 110.811 19.5288C110.852 19.5288 110.899 19.5305 110.951 19.5337C111.005 19.537 111.057 19.5428 111.106 19.551V22.2512C111.057 22.261 111.005 22.2668 110.951 22.2684C110.899 22.2717 110.852 22.2734 110.811 22.2734C110.772 22.2734 110.723 22.2717 110.663 22.2684C110.604 22.2668 110.552 22.261 110.505 22.2512V19.551Z" fill="white"/>
<path d="M112.232 20.3492C112.232 20.2967 112.233 20.2482 112.234 20.2039C112.236 20.1595 112.237 20.1094 112.237 20.0536C112.206 20.0536 112.163 20.0544 112.108 20.056C112.052 20.0577 112.008 20.0585 111.977 20.0585H111.497C111.489 20.0125 111.484 19.969 111.481 19.9279C111.478 19.8852 111.476 19.8458 111.476 19.8097C111.476 19.7752 111.478 19.7349 111.481 19.689C111.484 19.643 111.489 19.597 111.497 19.551H113.55C113.56 19.5871 113.567 19.6274 113.572 19.6717C113.576 19.7161 113.579 19.7538 113.579 19.785C113.579 19.8737 113.556 19.9419 113.51 19.9895C113.465 20.0355 113.386 20.0585 113.274 20.0585H113.081C113.05 20.0585 113.007 20.0577 112.952 20.056C112.898 20.0544 112.856 20.0536 112.828 20.0536C112.828 20.1094 112.829 20.1595 112.83 20.2039C112.832 20.2482 112.833 20.2967 112.833 20.3492V22.2512C112.796 22.2594 112.748 22.2651 112.687 22.2684C112.628 22.2717 112.577 22.2734 112.535 22.2734C112.492 22.2734 112.441 22.2717 112.382 22.2684C112.325 22.2651 112.275 22.2594 112.232 22.2512V20.3492Z" fill="white"/>
<path d="M115.237 19.5559C115.283 19.5444 115.329 19.537 115.375 19.5337C115.423 19.5288 115.466 19.5263 115.504 19.5263C115.555 19.5263 115.605 19.5296 115.654 19.5362C115.704 19.5428 115.746 19.5526 115.783 19.5658L115.809 19.5978L114.994 21.4653V22.2512C114.946 22.261 114.897 22.2668 114.846 22.2684C114.795 22.2717 114.748 22.2734 114.703 22.2734C114.665 22.2734 114.617 22.2717 114.56 22.2684C114.503 22.2668 114.451 22.261 114.405 22.2512V21.4456L113.592 19.6052C113.651 19.5773 113.713 19.5551 113.778 19.5387C113.843 19.5206 113.904 19.5116 113.959 19.5116C114.042 19.5116 114.109 19.5305 114.159 19.5682C114.21 19.6044 114.252 19.666 114.286 19.753L114.539 20.3665C114.578 20.4699 114.612 20.5636 114.639 20.6473C114.667 20.7294 114.691 20.8149 114.71 20.9036H114.736C114.765 20.805 114.794 20.7073 114.825 20.6104C114.855 20.5135 114.89 20.4149 114.93 20.3147L115.237 19.5559Z" fill="white"/>
<path d="M23.9005 13.9095C23.9005 15.5174 23.4181 16.7801 22.4534 17.6978C21.4887 18.6076 20.073 19.0625 18.2064 19.0625C16.3397 19.0625 14.9201 18.6076 13.9475 17.6978C12.9828 16.7801 12.5005 15.5174 12.5005 13.9095V5.78012L12.6417 5.63894H13.9358C14.6181 5.63894 15.1397 5.81149 15.5005 6.15659C15.8691 6.50169 16.0534 7.08208 16.0534 7.89777V13.886C16.0534 14.6311 16.2142 15.2154 16.5358 15.6389C16.8652 16.0625 17.4221 16.2742 18.2064 16.2742C19.0064 16.2742 19.5632 16.0625 19.877 15.6389C20.1907 15.2154 20.3475 14.6311 20.3475 13.886V5.76836C20.6456 5.71345 20.9515 5.67816 21.2652 5.66247C21.5789 5.64679 21.8495 5.63894 22.077 5.63894C22.2966 5.63894 22.5828 5.65071 22.9358 5.67424C23.2966 5.68993 23.6181 5.72914 23.9005 5.79189V13.9095Z" fill="white"/>
<path d="M31.59 12.6154C31.5037 12.4429 31.3743 12.1605 31.2018 11.7684C31.0292 11.3684 30.8567 10.9684 30.6841 10.5684C30.5116 10.1684 30.3861 9.87816 30.3077 9.69777L30.2135 9.73306C30.2449 10.337 30.2763 10.988 30.3077 11.686C30.339 12.384 30.3626 13.0272 30.3782 13.6154C30.4018 14.1958 30.4135 14.6193 30.4135 14.886V18.7213C30.1233 18.7762 29.841 18.8115 29.5665 18.8272C29.292 18.8429 29.041 18.8507 28.8135 18.8507C28.5939 18.8507 28.3312 18.8429 28.0253 18.8272C27.7194 18.8115 27.4253 18.7762 27.143 18.7213V5.85071C27.4253 5.78796 27.7704 5.73698 28.1782 5.69777C28.5861 5.65855 28.9077 5.63894 29.143 5.63894C29.3782 5.63894 29.7037 5.64679 30.1194 5.66247C30.543 5.67032 30.8959 5.70561 31.1782 5.76836L34.1312 11.8625C34.2018 11.9801 34.2998 12.1801 34.4253 12.4625C34.5508 12.7448 34.688 13.0546 34.8371 13.3919C34.9861 13.7291 35.1233 14.0468 35.2488 14.3448C35.3822 14.635 35.4802 14.8507 35.543 14.9919L35.6488 14.9684C35.6175 14.4586 35.5743 13.8703 35.5194 13.2037C35.4724 12.5291 35.4292 11.8782 35.39 11.2507C35.3586 10.6154 35.343 10.1056 35.343 9.7213V7.56836C35.343 6.7762 35.5116 6.25463 35.8488 6.00365C36.1861 5.74483 36.6959 5.61541 37.3782 5.61541H38.5547L38.6841 5.78012V18.6625C38.3939 18.7252 38.0449 18.7723 37.6371 18.8037C37.2292 18.835 36.9116 18.8507 36.6841 18.8507C36.4567 18.8507 36.1194 18.8429 35.6724 18.8272C35.2253 18.8193 34.8645 18.784 34.59 18.7213L31.59 12.6154Z" fill="white"/>
<path d="M42.2064 5.76836C42.4887 5.71345 42.8064 5.67816 43.1593 5.66247C43.5201 5.64679 43.8064 5.63894 44.0181 5.63894C44.2456 5.63894 44.5162 5.64679 44.8299 5.66247C45.1515 5.67816 45.4613 5.71345 45.7593 5.76836V18.7213C45.4613 18.7762 45.1515 18.8115 44.8299 18.8272C44.5162 18.8429 44.2456 18.8507 44.0181 18.8507C43.8064 18.8507 43.5201 18.8429 43.1593 18.8272C42.8064 18.8115 42.4887 18.7762 42.2064 18.7213V5.76836Z" fill="white"/>
<path d="M51.2589 10.0507C51.2589 9.79973 51.2629 9.56836 51.2707 9.35659C51.2786 9.13698 51.2825 8.89385 51.2825 8.62718C51.1178 8.62718 50.8942 8.6311 50.6119 8.63894C50.3295 8.64679 50.106 8.65071 49.9413 8.65071H47.7178C47.6629 8.38404 47.6276 8.13306 47.6119 7.89777C47.5962 7.66247 47.5884 7.44679 47.5884 7.25071C47.5884 7.05463 47.5962 6.82326 47.6119 6.55659C47.6276 6.28992 47.6629 6.02718 47.7178 5.76836H58.2472C58.3021 5.97228 58.3413 6.20365 58.3648 6.46247C58.3962 6.71345 58.4119 6.9213 58.4119 7.086C58.4119 7.58796 58.2746 7.9762 58.0001 8.25071C57.7335 8.51738 57.2825 8.65071 56.6472 8.65071H56.0589C55.9021 8.65071 55.6864 8.64679 55.4119 8.63894C55.1452 8.6311 54.9374 8.62718 54.7884 8.62718C54.7884 8.89385 54.7923 9.13698 54.8001 9.35659C54.808 9.56836 54.8119 9.79973 54.8119 10.0507V18.7213C54.6001 18.7684 54.3138 18.7997 53.9531 18.8154C53.5923 18.8389 53.2864 18.8507 53.0354 18.8507C52.7923 18.8507 52.4942 18.8389 52.1413 18.8154C51.7962 18.7997 51.5021 18.7684 51.2589 18.7213V10.0507Z" fill="white"/>
<path d="M67.6505 5.79189C67.9172 5.72914 68.1838 5.68993 68.4505 5.67424C68.725 5.65071 68.976 5.63895 69.2034 5.63895C69.5093 5.63895 69.8034 5.65856 70.0858 5.69777C70.376 5.72914 70.6309 5.78012 70.8505 5.85071L71.0034 6.02718L67.0034 15.0389V18.7213C66.7211 18.7762 66.427 18.8115 66.1211 18.8272C65.8152 18.8429 65.5446 18.8507 65.3093 18.8507C65.0975 18.8507 64.8191 18.8429 64.474 18.8272C64.1289 18.8115 63.8152 18.7762 63.5328 18.7213V14.9448L59.5564 6.08601C59.8858 5.92914 60.2426 5.80365 60.627 5.70954C61.0113 5.61542 61.3603 5.56836 61.674 5.56836C62.1603 5.56836 62.5564 5.67032 62.8623 5.87424C63.1681 6.07032 63.4152 6.41542 63.6034 6.90954L64.4975 9.19189C64.7015 9.74091 64.8662 10.2076 64.9917 10.5919C65.1172 10.9684 65.227 11.3919 65.3211 11.8625H65.4623C65.7603 10.7801 66.0858 9.78012 66.4387 8.86248L67.6505 5.79189Z" fill="white"/>
</svg>
